<svg width="150" height="40" viewBox="0 0 150 40" fill="none" xmlns="http://www.w3.org/2000/svg">
  <path d="M30 20C30 25.5228 25.5228 30 20 30C14.4772 30 10 25.5228 10 20C10 14.4772 14.4772 10 20 10C25.5228 10 30 14.4772 30 20Z" fill="#4ACA7A"/>
  <path d="M40 20C40 30.4934 31.0457 39 20 39C8.9543 39 0 30.4934 0 20C0 9.50659 8.9543 1 20 1C31.0457 1 40 9.50659 40 20Z" stroke="#4ACA7A" stroke-width="2"/>
  <path d="M45 20H50V22H45V20Z" fill="#1A202C"/>
  <path d="M55 16C53.3431 16 52 17.3431 52 19V23C52 24.6569 53.3431 26 55 26H58C59.6569 26 61 24.6569 61 23V19C61 17.3431 59.6569 16 58 16H55ZM55 18H58C58.5523 18 59 18.4477 59 19V23C59 23.5523 58.5523 24 58 24H55C54.4477 24 54 23.5523 54 23V19C54 18.4477 54.4477 18 55 18Z" fill="#1A202C"/>
  <path d="M67 16C65.3431 16 64 17.3431 64 19V23C64 24.6569 65.3431 26 67 26H70C71.6569 26 73 24.6569 73 23V19C73 17.3431 71.6569 16 70 16H67ZM67 18H70C70.5523 18 71 18.4477 71 19V23C71 23.5523 70.5523 24 70 24H67C66.4477 24 66 23.5523 66 23V19C66 18.4477 66.4477 18 67 18Z" fill="#1A202C"/>
  <path d="M75 16H77V26H75V16Z" fill="#1A202C"/>
  <path d="M84 16C82.3431 16 81 17.3431 81 19V23C81 24.6569 82.3431 26 84 26H87C88.6569 26 90 24.6569 90 23V19C90 17.3431 88.6569 16 87 16H84ZM84 18H87C87.5523 18 88 18.4477 88 19V23C88 23.5523 87.5523 24 87 24H84C83.4477 24 83 23.5523 83 23V19C83 18.4477 83.4477 18 84 18Z" fill="#1A202C"/>
  <path d="M92 16H94V22C94 22.5523 94.4477 23 95 23H99V25H95C93.3431 25 92 23.6569 92 22V16Z" fill="#1A202C"/>
  <path d="M101 16H103V22C103 22.5523 103.448 23 104 23H108V25H104C102.343 25 101 23.6569 101 22V16Z" fill="#1A202C"/>
  <path d="M110 16H112V26H110V16Z" fill="#1A202C"/>
  <path d="M119 16C117.343 16 116 17.3431 116 19V23C116 24.6569 117.343 26 119 26H122C123.657 26 125 24.6569 125 23V19C125 17.3431 123.657 16 122 16H119ZM119 18H122C122.552 18 123 18.4477 123 19V23C123 23.5523 122.552 24 122 24H119C118.448 24 118 23.5523 118 23V19C118 18.4477 118.448 18 119 18Z" fill="#1A202C"/>
  <path d="M127 16H129V20.5858L132.293 17.2929L133.707 18.7071L130.414 22L133.707 25.2929L132.293 26.7071L129 23.4142V26H127V16Z" fill="#1A202C"/>
  <!-- Additional paths can be added here if needed -->
</svg>
