<?xml version="1.0" encoding="utf-8" ?>
<svg xmlns="http://www.w3.org/2000/svg" xmlns:xlink="http://www.w3.org/1999/xlink" width="839" height="1031">
	<path fill="#F9A157" transform="scale(1.00028 0.999669)" d="M149.527 558.427C144.514 556.006 139.664 551.569 135.485 547.938C116.768 531.668 102.153 512.43 92.0337 489.736C73.4528 448.061 73.4629 406.068 89.7623 363.678C104.275 325.935 137.843 291.392 174.833 275.212C185.512 270.541 198.898 266.437 210.406 264.632C215.051 263.903 219.781 263.686 224.461 263.254C228.952 262.839 233.607 262.195 238.115 262.271C242.627 262.347 247.265 263.164 251.772 263.56C261.165 264.384 270.956 265.767 279.806 269.198C302.849 276.799 321.128 285.412 339.326 301.811C344.017 306.038 348.792 310.527 352.72 315.488C356.385 318.952 359.587 323.427 362.585 327.479C381.861 353.523 392.577 386.77 393.477 419.089Q393.513 421.109 393.501 423.129Q393.489 425.15 393.429 427.169Q393.368 429.189 393.259 431.206Q393.15 433.224 392.993 435.238Q392.836 437.252 392.631 439.263Q392.425 441.272 392.172 443.277Q391.918 445.282 391.617 447.279Q391.316 449.277 390.967 451.267Q390.618 453.257 390.221 455.238Q389.824 457.219 389.381 459.191Q388.936 461.162 388.446 463.122Q387.955 465.081 387.417 467.029Q386.879 468.977 386.294 470.91Q385.711 472.845 385.08 474.764Q384.449 476.684 383.774 478.588Q383.097 480.492 382.375 482.379Q381.654 484.266 380.887 486.136Q380.121 488.005 379.31 489.856Q378.499 491.706 377.644 493.536Q376.788 495.367 375.889 497.176Q374.991 498.986 374.049 500.773Q373.107 502.561 372.122 504.325Q371.138 506.09 370.112 507.83Q369.086 509.57 368.018 511.285Q366.95 513 365.841 514.69Q364.733 516.379 363.584 518.041Q362.435 519.703 361.247 521.337Q360.06 522.971 358.833 524.577Q357.605 526.182 356.341 527.757Q355.076 529.333 353.773 530.877Q352.471 532.422 351.132 533.935Q349.793 535.448 348.419 536.928C345.058 540.474 341.302 544.716 337.329 547.529C334.857 549.997 331.568 551.935 328.76 554.021Q327.024 555.316 325.252 556.569Q323.48 557.816 321.675 559.016Q319.869 560.21 318.03 561.362Q316.192 562.509 314.322 563.608Q312.453 564.701 310.553 565.747Q308.654 566.793 306.726 567.78Q304.799 568.773 302.844 569.712Q300.89 570.646 298.91 571.528Q296.93 572.414 294.927 573.237Q292.924 574.065 290.897 574.835Q288.872 575.61 286.825 576.321Q284.779 577.038 282.714 577.696Q280.648 578.349 278.566 578.949Q276.483 579.548 274.384 580.09Q272.285 580.631 270.172 581.114Q268.059 581.597 265.934 582.022C258.667 583.323 251.696 584.973 244.263 585.191C236.669 585.419 228.694 585.621 221.128 585.026C201.691 583.503 182.47 576.937 165.234 568.035C160.166 565.418 153.68 562.334 149.527 558.427ZM334.674 519.656C335.689 518.14 337.262 516.706 338.419 515.237Q343.688 508.569 348.609 501.641Q349.934 499.75 351.19 497.811Q352.445 495.872 353.631 493.89Q354.816 491.908 355.928 489.883Q357.04 487.859 358.078 485.796Q359.116 483.733 360.079 481.634Q361.042 479.534 361.927 477.401Q362.813 475.268 363.622 473.104Q364.43 470.941 365.159 468.749Q365.888 466.558 366.538 464.341Q367.187 462.125 367.756 459.886Q368.324 457.648 368.812 455.39Q369.299 453.133 369.704 450.859Q370.109 448.585 370.431 446.298Q370.753 444.011 370.993 441.714Q371.232 439.416 371.388 437.112Q371.544 434.807 371.617 432.499C371.914 422.273 372.045 411.797 370.7 401.633C369.799 394.813 367.7 387.99 365.558 381.467C357.909 358.168 348.535 344.873 332.003 327.314C327.893 324.482 322.9 318.227 318.198 314.693C301.384 302.057 280.405 291.917 259.57 288.469C255.277 287.759 250.788 287.484 246.448 287.152C210.096 285.102 176.282 294.948 148.802 319.436Q146.916 321.084 145.09 322.797Q143.264 324.509 141.499 326.285Q139.733 328.061 138.031 329.898Q136.329 331.734 134.693 333.629Q133.057 335.525 131.488 337.476Q129.919 339.427 128.42 341.433Q126.92 343.438 125.492 345.495Q124.064 347.552 122.708 349.657Q121.353 351.763 120.073 353.914Q118.792 356.066 117.588 358.261Q116.384 360.457 115.257 362.693Q114.131 364.929 113.084 367.203Q112.036 369.478 111.069 371.788Q110.102 374.097 109.217 376.44Q108.332 378.782 107.529 381.153Q106.726 383.526 106.007 385.924C103.897 392.95 102.15 399.911 101.738 407.273C101.14 417.963 100.56 430.978 101.63 441.548C104.563 470.534 118.516 497.14 137.861 518.529C144.599 525.979 153.344 533.229 161.486 539.126C177.211 548.262 189.913 554.547 207.782 558.14C211.653 558.915 215.582 559.786 219.525 560.072C255.989 562.705 285.933 557.854 315.776 535.771C322.421 530.851 328.447 525.081 334.674 519.656Z"/>
	<path fill="#C69CA7" transform="scale(1.00028 0.999669)" d="M279.806 269.198C302.849 276.799 321.128 285.412 339.326 301.811C344.017 306.038 348.792 310.527 352.72 315.488C356.385 318.952 359.587 323.427 362.585 327.479C381.861 353.523 392.577 386.77 393.477 419.089Q393.513 421.109 393.501 423.129Q393.489 425.15 393.429 427.169Q393.368 429.189 393.259 431.206Q393.15 433.224 392.993 435.238Q392.836 437.252 392.631 439.263Q392.425 441.272 392.172 443.277Q391.918 445.282 391.617 447.279Q391.316 449.277 390.967 451.267Q390.618 453.257 390.221 455.238Q389.824 457.219 389.381 459.191Q388.936 461.162 388.446 463.122Q387.955 465.081 387.417 467.029Q386.879 468.977 386.294 470.91Q385.711 472.845 385.08 474.764Q384.449 476.684 383.774 478.588Q383.097 480.492 382.375 482.379Q381.654 484.266 380.887 486.136Q380.121 488.005 379.31 489.856Q378.499 491.706 377.644 493.536Q376.788 495.367 375.889 497.176Q374.991 498.986 374.049 500.773Q373.107 502.561 372.122 504.325Q371.138 506.09 370.112 507.83Q369.086 509.57 368.018 511.285Q366.95 513 365.841 514.69Q364.733 516.379 363.584 518.041Q362.435 519.703 361.247 521.337Q360.06 522.971 358.833 524.577Q357.605 526.182 356.341 527.757Q355.076 529.333 353.773 530.877Q352.471 532.422 351.132 533.935Q349.793 535.448 348.419 536.928C345.058 540.474 341.302 544.716 337.329 547.529C337.082 547.487 336.829 547.338 336.588 547.407C334.553 547.975 327.827 553.761 325.667 555.327C321.083 558.655 308.316 567.047 303.108 568.534C303.008 567.732 302.985 567.361 303.34 566.628C304.279 566.214 304.985 565.986 305.525 565.052C304.493 563.088 300.448 562.196 298.616 560.789C297.867 560.21 297.115 559.313 297.092 558.331C296.99 553.989 310.33 547.009 313.527 543.755C315.583 541.663 316.253 540.342 316.168 537.411L316.148 536.833C320.698 532.555 332.621 524.703 334.674 519.656C335.689 518.14 337.262 516.706 338.419 515.237Q343.688 508.569 348.609 501.641Q349.934 499.75 351.19 497.811Q352.445 495.872 353.631 493.89Q354.816 491.908 355.928 489.883Q357.04 487.859 358.078 485.796Q359.116 483.733 360.079 481.634Q361.042 479.534 361.927 477.401Q362.813 475.268 363.622 473.104Q364.43 470.941 365.159 468.749Q365.888 466.558 366.538 464.341Q367.187 462.125 367.756 459.886Q368.324 457.648 368.812 455.39Q369.299 453.133 369.704 450.859Q370.109 448.585 370.431 446.298Q370.753 444.011 370.993 441.714Q371.232 439.416 371.388 437.112Q371.544 434.807 371.617 432.499C371.914 422.273 372.045 411.797 370.7 401.633C369.799 394.813 367.7 387.99 365.558 381.467C357.909 358.168 348.535 344.873 332.003 327.314C327.893 324.482 322.9 318.227 318.198 314.693C301.384 302.057 280.405 291.917 259.57 288.469C255.277 287.759 250.788 287.484 246.448 287.152L246.653 286.264C247.41 286.378 248.197 286.462 248.964 286.454C256.037 286.382 267.862 289.015 274.867 291.032C276.733 291.57 278.492 292.533 280.353 293.025C281.266 293.266 281.924 293.367 282.806 292.989C282.967 291.841 283.112 290.888 282.7 289.777C282.016 287.927 281.124 284.814 282.004 282.961C283.496 279.819 295.191 278.479 298.63 277.399L298.434 276.841C297.504 276.809 296.567 276.778 295.683 276.46C291.367 274.905 287.059 272.88 282.75 271.221C281.173 270.615 279.046 270.471 277.673 269.57C278.363 269.274 279.066 269.27 279.806 269.198Z"/>
	<path fill="#FCCE52" transform="scale(1.00028 0.999669)" d="M279.806 269.198C302.849 276.799 321.128 285.412 339.326 301.811C344.017 306.038 348.792 310.527 352.72 315.488L352.092 316.242C350.5 315.329 348.54 312.551 347.218 311.181C343.811 307.65 331.681 294.997 327.556 293.704C326.933 294.711 327.255 295.378 326.193 296.057C325.298 295.974 324.464 295.843 323.587 295.658C323.5 295.742 323.415 295.828 323.325 295.91C321.818 297.304 320.375 296.441 318.917 297.536C316.237 299.551 312.807 305.717 309.513 305.655C307.365 305.615 303.432 303.685 301.978 302.138L300.975 302.001C302.106 303.891 312.927 309.181 315.448 310.926C317.3 312.208 331.661 325.354 332.15 327.1L332.003 327.314C327.893 324.482 322.9 318.227 318.198 314.693C301.384 302.057 280.405 291.917 259.57 288.469C255.277 287.759 250.788 287.484 246.448 287.152L246.653 286.264C247.41 286.378 248.197 286.462 248.964 286.454C256.037 286.382 267.862 289.015 274.867 291.032C276.733 291.57 278.492 292.533 280.353 293.025C281.266 293.266 281.924 293.367 282.806 292.989C282.967 291.841 283.112 290.888 282.7 289.777C282.016 287.927 281.124 284.814 282.004 282.961C283.496 279.819 295.191 278.479 298.63 277.399L298.434 276.841C297.504 276.809 296.567 276.778 295.683 276.46C291.367 274.905 287.059 272.88 282.75 271.221C281.173 270.615 279.046 270.471 277.673 269.57C278.363 269.274 279.066 269.27 279.806 269.198Z"/>
	<path fill="#F8668B" transform="scale(1.00028 0.999669)" d="M161.486 539.126C177.211 548.262 189.913 554.547 207.782 558.14C211.653 558.915 215.582 559.786 219.525 560.072C255.989 562.705 285.933 557.854 315.776 535.771C322.421 530.851 328.447 525.081 334.674 519.656C332.621 524.703 320.698 532.555 316.148 536.833L316.168 537.411C316.253 540.342 315.583 541.663 313.527 543.755C310.33 547.009 296.99 553.989 297.092 558.331C297.115 559.313 297.867 560.21 298.616 560.789C300.448 562.196 304.493 563.088 305.525 565.052C304.985 565.986 304.279 566.214 303.34 566.628C302.985 567.361 303.008 567.732 303.108 568.534C308.316 567.047 321.083 558.655 325.667 555.327C327.827 553.761 334.553 547.975 336.588 547.407C336.829 547.338 337.082 547.487 337.329 547.529C334.857 549.997 331.568 551.935 328.76 554.021Q327.024 555.316 325.252 556.569Q323.48 557.816 321.675 559.016Q319.869 560.21 318.03 561.362Q316.192 562.509 314.322 563.608Q312.453 564.701 310.553 565.747Q308.654 566.793 306.726 567.78Q304.799 568.773 302.844 569.712Q300.89 570.646 298.91 571.528Q296.93 572.414 294.927 573.237Q292.924 574.065 290.897 574.835Q288.872 575.61 286.825 576.321Q284.779 577.038 282.714 577.696Q280.648 578.349 278.566 578.949Q276.483 579.548 274.384 580.09Q272.285 580.631 270.172 581.114Q268.059 581.597 265.934 582.022C258.667 583.323 251.696 584.973 244.263 585.191C236.669 585.419 228.694 585.621 221.128 585.026C201.691 583.503 182.47 576.937 165.234 568.035C160.166 565.418 153.68 562.334 149.527 558.427L150.26 558.108C150.818 558.4 151.369 558.692 151.937 558.958C154.11 559.987 155.994 561.58 158.005 562.891Q162.701 565.89 167.654 568.443C183.09 576.231 203.194 582.935 220.398 584.225C227.196 584.729 234.152 584.458 240.978 584.74C241.681 584.31 242.173 583.848 242.742 583.253C244.24 582.914 245.018 583.169 246.292 583.986Q246.626 584.198 246.954 584.427C247.922 584.358 248.234 584.129 248.96 583.556C249.962 582.765 250.692 582.68 251.935 582.632L252.175 583.599C252.314 581.868 251.033 578.954 252.514 577.749C253.619 576.852 255.944 576.645 257.306 576.915C258.466 577.149 258.878 577.547 259.618 578.423C259.478 579.649 258.532 579.628 259.079 580.796C260.546 581.332 262.465 580.674 263.926 580.223L264.51 580.461L264.3 581.496C264.759 581.481 265.218 581.465 265.676 581.438L266.873 581.167C267.031 580 267.249 579.617 268.1 578.869C269.684 578.598 271.458 578.428 272.491 577.075L271.882 576.793Q271.288 576.931 270.691 577.053C269.286 577.335 268.553 577.489 267.337 576.682C265.456 575.44 264.634 575.498 262.551 575.201C261.527 575.052 260.47 575.089 259.851 574.235C260.035 574.129 260.231 574.033 260.403 573.906C261.284 573.263 261.08 570.657 261.248 569.617C261.435 568.454 261.533 568.083 262.483 567.382L261.363 567.233L261.808 567.085C261.235 566.766 260.975 566.617 260.643 566.023C260.313 565.434 260.512 565.344 260.707 564.749C261.903 564.393 263.106 564 264.334 563.772L264.954 563.666L264.517 562.7C263.218 562.047 261.805 562.297 260.394 562.376C259.635 561.898 259.521 561.792 259.1 561.007C259.914 560.794 260.309 560.901 260.809 560.194C259.177 559.733 256.911 560.784 255.193 560.906C251.746 561.155 248.179 561.092 244.712 561.23C225.974 561.983 207.382 560.566 189.637 554.058C184.304 552.105 163.406 543.267 161.486 539.126Z"/>
	<path fill="#C0B3A3" transform="scale(1.00028 0.999669)" d="M413.509 514.267C413.136 508.59 413.409 502.712 413.38 497.008L413.279 461.386L413.181 365.722C413.212 345.004 414.813 322.86 411.053 302.536C408.638 289.486 403.163 275.808 395.949 264.656C391.136 257.216 384.727 251.06 379.539 243.923C376.543 239.8 374.248 235.249 372.098 230.645C370.385 226.974 368.867 223.663 368.574 219.555C367.419 203.371 370.456 186.226 381.402 173.66C391.058 162.574 406.294 155.535 420.873 154.691C434.983 153.874 450.672 159.29 461.193 168.826C469.13 176.02 474.63 185.262 478.09 195.363C484.088 212.868 479.587 230.805 468.786 245.354C465.287 250.067 461.067 254.276 457.241 258.728C451.295 265.648 446.284 274.305 443.147 282.839C439.609 292.462 437.271 303.173 436.181 313.373C435.718 317.708 435.932 322.202 435.831 326.561C435.543 339.053 435.547 351.702 436.099 364.188C437.955 366.916 440.616 369.964 442.96 372.288C443.801 373.121 444.684 374.03 445.944 373.993C447.396 373.95 448.95 373.109 450.196 372.402C461.15 366.183 471.904 351.886 477.598 340.724C479.861 336.288 481.523 331.421 483.362 326.791C485.833 320.571 488.415 312.426 492.951 307.451C497.165 302.83 503.846 300.674 509.284 297.877C520.883 291.911 535.214 283.66 543.654 273.723C545.395 273.358 547.922 268.842 549.026 267.159C551.117 263.961 552.556 260.064 554.839 257.066C553.819 261.998 550.709 269.522 551.85 274.466C552.444 277.033 554.61 280.162 556.043 282.341C558.411 285.944 559.94 284.116 562.376 285.995C560.683 289.475 551.378 295.116 552.089 298.667C544.344 310.292 537.889 333.911 530.835 341.722C527.077 345.881 520.74 348.275 515.793 350.69C500.725 358.048 484.24 366.452 473.117 379.373C470.477 382.439 468.357 385.916 466.096 389.264C463.579 392.991 459.66 398.209 460.558 403.013C460.911 404.906 462.103 406.371 463.702 407.391C465.932 408.814 468.633 409.704 471.121 410.567C484.177 415.099 495.934 412.877 508.933 409.646C530.625 404.255 551.378 382.261 572.632 383.972C574.415 384.115 575.827 385.158 577.574 385.485C581.332 386.188 584.671 386.418 588.047 388.494C592.554 391.263 606.371 405.033 607.464 410.412C608.425 415.156 608.011 418.401 610.097 423.017C609.163 427.535 608.499 432.777 606.886 437.061C604.274 444.002 595.749 452.674 589.661 456.732C581.263 462.324 571.198 464.01 561.378 462.004C550.172 459.716 541.807 452.292 532.777 445.876Q531.376 444.895 529.935 443.97Q528.495 443.046 527.019 442.179Q525.543 441.313 524.034 440.505Q522.525 439.698 520.985 438.951Q519.445 438.205 517.877 437.52Q516.309 436.835 514.714 436.213Q513.12 435.591 511.502 435.033Q509.884 434.474 508.245 433.981Q506.607 433.487 504.95 433.06Q503.293 432.632 501.62 432.27Q499.948 431.908 498.262 431.612Q496.576 431.317 494.88 431.09Q493.184 430.862 491.48 430.702Q489.776 430.541 488.068 430.449Q486.358 430.356 484.648 430.332Q482.936 430.307 481.225 430.351C472.346 430.508 463.462 431.339 455.802 436.261C445.434 442.923 440.033 454.646 437.577 466.384C434.221 482.42 435.505 506.169 435.477 523.18C435.004 521.549 434.807 520.014 434.167 518.397L433.882 518.643C433.892 527.876 433.615 537.995 434.852 547.131C435.149 549.329 435.91 551.484 436.299 553.687L435.926 554.212C433.274 555.067 433.695 553.952 431.593 553.846C429.553 553.74 427.594 555.672 425.383 555.157C420.43 554.005 418.21 548.373 415.861 544.397C415.465 544.36 414.791 544.349 414.398 544.206C413.601 543.914 413.383 543.718 413.275 542.884C412.987 540.671 413.713 537.698 413.857 535.426C414.046 532.475 414.695 516.352 413.831 514.789C413.732 514.61 413.616 514.441 413.509 514.267Z"/>
	<defs>
		<linearGradient id="gradient_0" gradientUnits="userSpaceOnUse" x1="1277.85" y1="1278.09" x2="1016.11" y2="903.40601">
			<stop offset="0" stop-color="#723D94"/>
			<stop offset="1" stop-color="#B393B2"/>
		</linearGradient>
	</defs>
	<path fill="url(#gradient_0)" transform="scale(1.00028 0.999669)" d="M621.521 688.781C619.233 687.778 616.913 686.244 614.875 684.8C605.973 678.462 598.939 665.022 596.429 654.527C595.51 650.673 595.34 646.676 594.762 642.764C594.183 638.852 593.419 634.961 593.297 630.996C593.19 627.599 594.926 624.52 594.783 621.091C594.65 617.815 593.445 614.668 593.116 611.424C592.707 607.379 592.883 603.276 592.527 599.226C591.853 591.545 589.374 582.818 586.497 575.684C580.971 561.946 572.127 550.427 561.617 540.113Q556.787 535.341 551.388 531.222C542.72 524.534 524.591 513.375 523.045 502.094C522.401 497.39 525.164 491.074 528.116 487.438C530.817 484.111 536.392 481.445 540.639 481.074C545.013 480.691 550.587 482.489 553.888 485.379C562.934 493.298 567.175 505.003 573.088 515.109C579.495 526.063 587.378 537.985 596.009 547.28C609.561 561.872 629.499 571.432 648.486 576.65C660.77 580.021 673.547 582.128 683.691 590.515C692.672 597.941 698.607 605.394 702.445 616.494C703.522 619.615 704.584 622.874 704.892 626.176C708.225 635.587 707.631 643.035 705.449 652.611C704.446 656.99 703.315 661.2 701.394 665.282C695.406 677.984 682.868 689.726 669.624 694.429C659.766 697.927 641.756 699.334 632.169 694.663C628.878 693.06 624.26 691.138 621.521 688.781Z"/>
	<path fill="#7D4894" transform="scale(1.00028 0.999669)" d="M704.892 626.176C708.225 635.587 707.631 643.035 705.449 652.611C704.446 656.99 703.315 661.2 701.394 665.282C695.406 677.984 682.868 689.726 669.624 694.429C659.766 697.927 641.756 699.334 632.169 694.663C628.878 693.06 624.26 691.138 621.521 688.781C621.547 688.76 621.563 688.728 621.595 688.712C622.699 688.213 625.311 690.098 626.468 690.714C632.169 693.76 636.814 696.51 643.428 696.696C645.763 696.76 648.152 696.346 650.461 696.643C651.348 696.754 652.075 696.754 652.967 696.68L653.142 696.133C650.955 689.11 647.329 693.33 643.613 690.4C642.616 689.615 639.447 687.645 638.852 686.679C638.496 686.09 639.282 685.129 638.433 684.641C636.235 683.378 633.655 684.513 631.771 682.3C631.192 679.455 629.164 677.188 628.034 674.55C627.206 672.623 626.579 670.356 627.461 668.345C628.326 666.37 630.444 665.42 631.898 663.917C634.34 661.396 638.019 655.244 641.251 654.113C643.948 653.168 651.528 650.09 653.206 648.152C653.641 647.648 654.039 646.708 654.543 646.294C656.491 644.707 661.152 647.43 664.682 645.11C666.948 643.619 670.192 641.687 670.744 638.857C670.829 638.422 670.924 637.997 671.025 637.567L671.179 636.888C674.2 634.887 677.512 634.621 681.015 634.202C681.509 633.321 681.944 632.418 682.39 631.516C682.725 631.436 682.873 631.378 683.261 631.436C685.108 631.712 694.18 636.092 695.215 637.419C695.507 637.79 694.817 639.903 694.679 640.46C696.016 642.265 696.903 644.877 698.379 646.406C699.175 647.223 699.807 647.234 700.889 647.292L701.526 645.88C702.429 645.546 702.901 645.079 703.464 644.298C703.581 644.139 703.687 643.98 703.793 643.82C704.982 643.502 705.301 643.969 706.341 644.564C706.58 641.904 706.649 639.309 706.362 636.644C706.139 634.52 704.414 628.342 704.738 626.797C704.78 626.59 704.839 626.383 704.892 626.176Z"/>
	<path fill="#6ABBB8" transform="scale(1.00028 0.999669)" d="M543.654 273.723C544.859 270.979 546.966 268.396 548.617 265.889C552.253 260.37 555.582 254.165 557.344 247.766C559.849 238.665 561.431 228.847 562.445 219.464C564.675 198.856 564.86 185.398 580.801 169.761C586.088 164.575 591.062 160.729 598.032 157.976C601.487 156.611 605.171 155.389 608.855 154.813C617.417 153.473 637.079 153.666 644.93 157.171C651.284 160.005 659.798 165.541 664.475 170.683C668.615 175.24 672.862 182.779 675.022 188.552C680.984 204.455 680.755 219.099 673.6 234.618C666.805 249.354 655.154 257.754 640.248 263.22C632.105 266.204 624.079 265.816 615.575 266.321C587.797 267.97 569.574 276.883 552.089 298.667C551.378 295.116 560.683 289.475 562.376 285.995C559.94 284.116 558.411 285.944 556.043 282.341C554.61 280.162 552.444 277.033 551.85 274.466C550.709 269.522 553.819 261.998 554.839 257.066C552.556 260.064 551.117 263.961 549.026 267.159C547.922 268.842 545.395 273.358 543.654 273.723Z"/>
	<defs>
		<linearGradient id="gradient_1" gradientUnits="userSpaceOnUse" x1="811.73602" y1="1319.97" x2="772.75897" y2="1025.11">
			<stop offset="0" stop-color="#EA4B51"/>
			<stop offset="1" stop-color="#F5755E"/>
		</linearGradient>
	</defs>
	<path fill="url(#gradient_1)" transform="scale(1.00028 0.999669)" d="M413.509 514.267C413.616 514.441 413.732 514.61 413.831 514.789C414.695 516.352 414.046 532.475 413.857 535.426C413.713 537.698 412.987 540.671 413.275 542.884C413.383 543.718 413.601 543.914 414.398 544.206C414.791 544.349 415.465 544.36 415.861 544.397C418.21 548.373 420.43 554.005 425.383 555.157C427.594 555.672 429.553 553.74 431.593 553.846C433.695 553.952 433.274 555.067 435.926 554.212L436.299 553.687C435.91 551.484 435.149 549.329 434.852 547.131C433.615 537.995 433.892 527.876 433.882 518.643L434.167 518.397C434.807 520.014 435.004 521.549 435.477 523.18C435.894 529.394 435.449 535.761 435.687 542.008C436.141 553.952 439.831 566.432 444.51 577.383C456.005 604.279 479.992 610.458 480.401 645.647C480.566 659.851 473.653 675.256 463.699 685.326C452.939 696.208 436.978 702.142 421.833 702.137C404.539 702.132 392.802 695.507 380.994 683.516C374.708 677.13 371.292 668.1 369.207 659.538C366.92 650.153 366.749 642.807 369.032 633.347C374.784 609.513 395.176 597.527 404.225 576.507C412.608 557.036 413.289 535.129 413.509 514.267Z"/>
	<path fill="#FCCE52" transform="scale(1.00028 0.999669)" d="M131.008 153.665Q132.412 153.642 133.817 153.687Q135.221 153.733 136.621 153.848Q138.022 153.962 139.415 154.145Q140.808 154.328 142.19 154.579Q143.573 154.83 144.941 155.148Q146.31 155.466 147.661 155.851Q149.012 156.235 150.343 156.686Q151.674 157.137 152.981 157.652Q154.289 158.166 155.569 158.745Q156.849 159.323 158.1 159.963Q159.351 160.604 160.568 161.305Q161.787 162.005 162.968 162.765Q164.15 163.525 165.294 164.341Q166.438 165.157 167.54 166.029Q168.642 166.9 169.7 167.824Q170.758 168.749 171.77 169.724Q172.782 170.699 173.745 171.722Q174.707 172.746 175.619 173.815Q176.531 174.884 177.389 175.996Q178.247 177.109 179.05 178.262Q179.852 179.415 180.597 180.607Q181.343 181.798 182.029 183.024Q182.715 184.25 183.341 185.508Q183.966 186.767 184.529 188.054Q185.092 189.341 185.591 190.654Q186.091 191.968 186.525 193.304Q186.96 194.64 187.328 195.996Q187.697 197.352 187.999 198.725Q188.301 200.097 188.535 201.482Q188.77 202.868 188.936 204.263Q189.102 205.658 189.2 207.06Q189.298 208.462 189.327 209.867Q189.356 211.271 189.316 212.676Q189.276 214.08 189.168 215.482Q189.06 216.882 188.883 218.276Q188.706 219.67 188.462 221.054Q188.217 222.438 187.905 223.808Q187.593 225.178 187.214 226.531Q186.835 227.884 186.391 229.217Q185.946 230.55 185.437 231.859Q184.927 233.169 184.355 234.452Q183.782 235.735 183.148 236.989Q182.513 238.242 181.817 239.463Q181.122 240.684 180.368 241.869Q179.613 243.055 178.802 244.202Q177.991 245.35 177.124 246.456Q176.257 247.561 175.338 248.624Q174.419 249.686 173.448 250.702Q172.477 251.718 171.458 252.686Q170.44 253.653 169.374 254.569Q168.309 255.486 167.201 256.349Q166.092 257.212 164.942 258.02Q163.793 258.828 162.605 259.578Q161.417 260.329 160.194 261.02Q158.971 261.712 157.716 262.343Q156.46 262.974 155.176 263.543Q153.891 264.111 152.58 264.617Q151.269 265.122 149.934 265.562Q148.6 266.003 147.246 266.378Q145.892 266.752 144.521 267.06Q143.15 267.368 141.766 267.608Q140.382 267.848 138.987 268.021Q137.593 268.194 136.192 268.298Q134.791 268.402 133.386 268.437Q131.973 268.472 130.561 268.438Q129.148 268.404 127.74 268.3Q126.33 268.197 124.928 268.024Q123.526 267.852 122.134 267.61Q120.742 267.368 119.363 267.059Q117.985 266.749 116.623 266.372Q115.262 265.994 113.92 265.551Q112.579 265.107 111.261 264.598Q109.943 264.088 108.652 263.515Q107.36 262.942 106.099 262.305Q104.837 261.669 103.608 260.971Q102.38 260.274 101.187 259.516Q99.994 258.759 98.84 257.944Q97.6859 257.129 96.5733 256.258Q95.4607 255.387 94.3922 254.463Q93.3236 253.539 92.3018 252.562Q91.28 251.586 90.308 250.561Q89.3356 249.536 88.4146 248.464Q87.4936 247.393 86.6268 246.277Q85.7599 245.162 84.9488 244.004Q84.1377 242.847 83.3845 241.652Q82.6312 240.456 81.938 239.225Q81.2447 237.994 80.6125 236.73Q79.9809 235.467 79.4118 234.173Q78.8428 232.88 78.3379 231.56Q77.8331 230.24 77.3941 228.897Q76.9546 227.554 76.5825 226.192Q76.2099 224.828 75.9046 223.449Q75.5994 222.069 75.3627 220.676Q75.1259 219.283 74.9582 217.88Q74.7899 216.477 74.6912 215.068Q74.5925 213.658 74.5633 212.245Q74.5341 210.833 74.5744 209.42Q74.6147 208.008 74.7241 206.599Q74.834 205.19 75.0129 203.789Q75.1917 202.387 75.4391 200.996Q75.687 199.605 76.0029 198.227Q76.3187 196.85 76.702 195.49Q77.0847 194.13 77.5343 192.791Q77.9839 191.451 78.4988 190.135Q79.0142 188.819 79.5933 187.531Q80.1719 186.242 80.8142 184.983Q81.456 183.724 82.1588 182.498Q82.8616 181.273 83.6239 180.083Q84.3867 178.893 85.2063 177.743Q86.0264 176.592 86.9023 175.483Q87.7776 174.374 88.7071 173.309Q89.636 172.245 90.6164 171.227Q91.5969 170.21 92.6261 169.242Q93.6554 168.274 94.7309 167.358Q95.8068 166.441 96.9258 165.579Q98.0453 164.717 99.2057 163.912Q100.367 163.105 101.565 162.357Q102.764 161.609 103.998 160.921Q105.232 160.233 106.499 159.607Q107.765 158.98 109.06 158.417Q110.356 157.854 111.678 157.355Q113 156.856 114.345 156.422Q115.69 155.989 117.054 155.622Q118.419 155.256 119.8 154.957Q121.18 154.658 122.574 154.427Q123.968 154.196 125.372 154.035Q126.776 153.873 128.186 153.78Q129.595 153.687 131.008 153.665Z"/>
	<defs>
		<linearGradient id="gradient_2" gradientUnits="userSpaceOnUse" x1="554.01501" y1="1286.12" x2="516.05402" y2="1141.91">
			<stop offset="0" stop-color="#F06052"/>
			<stop offset="1" stop-color="#FB865D"/>
		</linearGradient>
	</defs>
	<path fill="url(#gradient_2)" transform="scale(1.00028 0.999669)" d="M274.923 605.24Q275.889 605.007 276.866 604.816Q277.843 604.63 278.828 604.486Q279.812 604.348 280.803 604.258Q281.793 604.163 282.787 604.12Q283.781 604.078 284.775 604.083Q285.77 604.088 286.764 604.147Q287.757 604.2 288.746 604.306Q289.735 604.407 290.719 604.561Q291.702 604.709 292.676 604.911Q293.65 605.113 294.614 605.357Q295.577 605.607 296.527 605.904Q297.477 606.196 298.412 606.535Q299.346 606.88 300.263 607.263Q301.179 607.65 302.076 608.08Q302.973 608.515 303.847 608.988Q304.721 609.46 305.571 609.98Q306.421 610.495 307.245 611.053Q308.068 611.61 308.863 612.21Q309.658 612.81 310.423 613.447Q311.188 614.078 311.921 614.753Q312.653 615.427 313.352 616.133Q314.05 616.844 314.714 617.582Q315.377 618.325 316.003 619.1Q316.629 619.87 317.216 620.677Q317.803 621.478 318.35 622.306Q318.897 623.14 319.403 623.994Q319.909 624.854 320.371 625.735Q320.834 626.616 321.254 627.514Q321.672 628.416 322.047 629.34Q322.421 630.263 322.75 631.203Q323.079 632.137 323.361 633.093Q323.643 634.048 323.878 635.014Q324.113 635.98 324.3 636.957Q324.487 637.934 324.626 638.921Q324.766 639.903 324.856 640.896Q324.947 641.888 324.988 642.881Q325.03 643.874 325.023 644.866Q325.016 645.864 324.96 646.857Q324.904 647.849 324.8 648.837Q324.695 649.829 324.542 650.811Q324.389 651.794 324.188 652.765Q323.987 653.742 323.738 654.702Q323.489 655.668 323.194 656.619Q322.898 657.569 322.556 658.503Q322.214 659.437 321.827 660.35Q321.44 661.269 321.008 662.166Q320.576 663.058 320.101 663.933Q319.626 664.809 319.108 665.659Q318.59 666.508 318.032 667.331Q317.473 668.153 316.874 668.944Q316.276 669.741 315.639 670.505Q315.002 671.269 314.328 672.002Q313.655 672.734 312.947 673.43Q312.238 674.131 311.496 674.794Q310.754 675.452 309.98 676.079Q309.207 676.705 308.403 677.289Q307.6 677.878 306.768 678.425Q305.937 678.972 305.08 679.476Q304.223 679.98 303.343 680.442Q302.461 680.904 301.559 681.323Q300.657 681.743 299.735 682.114Q298.813 682.486 297.874 682.815Q296.935 683.144 295.981 683.425Q295.027 683.707 294.06 683.94Q293.094 684.174 292.119 684.36Q291.143 684.545 290.159 684.683Q289.175 684.821 288.186 684.912Q287.197 685.002 286.204 685.044Q285.211 685.081 284.218 685.076Q283.225 685.071 282.233 685.012Q281.241 684.954 280.253 684.853Q279.265 684.747 278.284 684.593Q277.302 684.439 276.329 684.237Q275.356 684.036 274.395 683.786Q273.433 683.542 272.485 683.245Q271.536 682.948 270.603 682.608Q269.671 682.263 268.756 681.875Q267.841 681.493 266.946 681.058Q266.051 680.628 265.178 680.155Q264.306 679.678 263.458 679.163Q262.609 678.643 261.788 678.085Q260.965 677.528 260.172 676.928Q259.378 676.333 258.615 675.697Q257.851 675.06 257.121 674.391Q256.389 673.716 255.692 673.01Q254.995 672.299 254.333 671.561Q253.671 670.818 253.046 670.049Q252.422 669.273 251.835 668.472Q251.249 667.67 250.703 666.842Q250.157 666.009 249.652 665.154Q249.148 664.3 248.686 663.419Q248.223 662.537 247.805 661.64Q247.387 660.738 247.013 659.82Q246.639 658.896 246.311 657.956Q245.983 657.022 245.701 656.067Q245.419 655.116 245.184 654.15Q244.95 653.184 244.762 652.208Q244.576 651.236 244.436 650.249Q244.297 649.267 244.207 648.274Q244.116 647.287 244.074 646.294Q244.032 645.302 244.038 644.309Q244.045 643.316 244.1 642.324Q244.156 641.331 244.26 640.344Q244.364 639.356 244.516 638.374Q244.668 637.392 244.869 636.421Q245.069 635.444 245.317 634.483Q245.564 633.523 245.859 632.572Q246.153 631.622 246.494 630.688Q246.835 629.759 247.221 628.841Q247.607 627.928 248.038 627.031Q248.468 626.133 248.942 625.263Q249.416 624.387 249.932 623.538Q250.448 622.694 251.005 621.871Q251.562 621.048 252.159 620.252Q252.756 619.456 253.391 618.691Q254.026 617.927 254.698 617.2Q255.369 616.467 256.076 615.766Q256.783 615.071 257.523 614.408Q258.263 613.744 259.035 613.118Q259.807 612.491 260.609 611.907Q261.41 611.318 262.24 610.771Q263.069 610.225 263.924 609.72Q264.779 609.216 265.658 608.749Q266.537 608.287 267.438 607.868Q268.338 607.448 269.258 607.077Q270.178 606.7 271.116 606.371Q272.053 606.042 273.005 605.76Q273.958 605.474 274.923 605.24Z"/>
	<path transform="scale(1.00028 0.999669)" d="M167.839 973.076Q131.999 973.076 131.999 848.989L131.999 838.659Q131.999 816.991 134.582 800.992Q136.093 790.914 138.802 784.489Q141.51 778.001 146.171 774.159Q150.581 769.75 157.509 769.75Q163.745 769.75 168.91 772.206Q174.075 774.663 177.414 778.568Q180.248 782.159 182.579 788.079Q184.909 794 186.169 799.417L188.248 811.574Q194.421 855.666 194.421 889.742L194.421 890.498Q194.421 903.411 193.917 914.245Q193.413 927.158 191.082 941.33Q190.011 948.322 188.059 953.487Q186.169 958.652 183.083 963.817Q177.666 973.076 167.839 973.076ZM168.343 965.832Q172.501 965.832 175.839 961.108Q179.177 956.321 181.004 947.818Q185.161 929.74 186.169 912.418Q186.673 898.498 186.673 885.333L186.673 884.326L186.421 858.5Q185.917 844.58 183.335 822.408Q181.256 806.661 174.831 790.158Q172.249 783.733 167.965 780.143Q163.745 776.49 158.832 776.49Q154.423 776.49 151.085 780.647Q147.746 784.741 145.667 792.237Q141.006 809.495 140.503 824.235Q139.747 836.832 139.747 850.249L139.747 862.909Q139.747 880.168 143.085 906.749Q145.164 923.567 148.25 935.976Q151.337 948.322 156.501 956.825Q161.667 965.832 168.343 965.832ZM256.862 971.501Q252.705 971.501 247.918 968.793Q243.194 966.084 240.107 962.494Q236.454 957.833 234.376 936.417Q232.36 915.001 231.856 887.412Q231.856 881.239 231.604 878.153Q231.037 813.401 229.525 801.496L231.037 797.906Q237.021 798.661 237.021 812.078L237.777 880.483Q237.777 887.664 239.037 907.82Q240.611 925.835 240.611 935.157Q240.611 964.573 259.949 964.573Q271.854 964.573 275.192 910.403L275.444 905.238Q277.271 834.25 277.271 800.236L276.956 797.906Q276.704 796.835 276.704 795.575Q276.704 792.74 281.113 792.74Q284.199 792.74 284.955 794.252Q285.522 796.835 285.522 803.323Q285.522 822.912 283.947 829.652L284.199 831.163Q284.199 834.502 283.443 841.493L282.939 851.824L282.939 854.406Q283.191 855.414 283.191 856.989Q282.688 863.161 282.688 868.83Q282.373 870.657 282.373 874.499Q281.869 899.002 281.365 917.079Q280.609 939.566 275.192 954.998Q269.523 971.501 256.862 971.501ZM363.699 970.745Q360.549 967.407 356.959 952.983Q353.369 938.495 350.282 920.418Q348.204 905.742 344.299 891.317Q341.212 878.405 338.378 878.405L337.622 878.405Q331.953 878.405 331.953 881.995Q331.953 900.576 334.031 938.495Q335.039 961.738 336.299 965.58L334.283 969.99L330.63 969.99L328.614 967.911Q324.457 848.737 324.457 805.401Q324.457 802.567 324.835 800.74Q325.213 798.913 326.536 797.402Q327.544 795.575 330.126 795.575Q343.291 795.575 351.29 802.063Q359.29 808.488 359.29 820.581L359.29 839.415Q359.29 844.328 356.077 852.579Q352.865 860.831 348.96 867.823L345.621 874.247Q348.456 887.412 356.833 921.615Q365.211 955.817 365.966 957.833Q366.281 958.085 366.659 959.156Q367.037 960.163 368.297 962.242Q370.124 965.832 370.124 968.415Q370.124 972.068 367.289 972.068L363.699 970.745ZM333.213 871.917Q338.126 871.917 341.968 867.067Q345.873 862.154 348.204 854.406Q352.298 838.659 352.298 829.4Q352.298 823.416 351.668 819.574Q351.038 815.668 349.464 811.322Q346.377 802.252 334.787 802.252Q333.465 802.252 332.709 804.456Q331.953 806.661 331.953 808.992Q331.953 826.25 332.457 840.234Q332.709 854.154 332.709 871.413L333.213 871.917ZM499.392 971.816Q497.061 971.816 496.305 969.99Q496.053 968.415 490.069 948.322L481.062 916.827Q466.89 867.823 462.732 856.233L461.221 851.824Q460.969 852.327 460.276 853.398Q459.646 854.406 458.071 856.737Q454.985 862.406 452.969 865.492L449.316 871.413L449.316 963.25Q449.316 967.659 448.56 969.297Q447.804 970.997 445.222 970.997Q442.639 970.997 441.694 969.171Q440.812 967.407 440.812 962.746L440.812 884.829Q440.812 869.649 441.568 835.321L442.135 785.749Q442.135 780.899 442.639 776.742Q443.395 773.655 445.474 773.655Q449.316 773.655 450.135 775.419Q451.143 777.245 451.143 784.741L450.639 827.573L450.135 858.752L450.387 858.752Q455.237 847.918 464.307 826.25L473.818 802.252Q488.306 766.411 492.148 766.411Q493.975 766.411 495.234 767.482Q496.557 768.49 496.557 770.317Q495.738 775.167 492.4 780.584L489.817 785.245Q485.471 795.575 476.905 816.235Q466.638 841.242 465.819 842.501Q465.567 844.328 466.071 845.651Q471.236 858.752 477.661 878.153Q484.148 897.49 488.306 911.662Q492.652 927.158 497.187 943.157Q501.722 959.156 503.486 966.084Q504.053 967.659 504.053 967.911Q504.053 969.738 502.604 970.745Q501.218 971.816 499.392 971.816ZM538.333 967.659Q532.412 967.659 531.405 965.076Q530.082 965.076 529.326 965.328L527.247 965.328Q521.578 965.328 520.004 962.746Q520.004 960.982 522.082 959.659L523.405 958.4L530.838 958.4L531.909 957.329L532.412 954.998L532.664 951.912Q532.664 936.165 531.909 923.819L531.405 914.245L530.838 895.411Q530.838 885.333 531.657 865.24L532.161 835.321Q532.161 815.668 530.838 805.401Q528.507 804.582 523.09 804.582L520.256 804.834Q518.744 805.149 516.917 805.149Q512.004 805.149 512.004 800.74Q512.004 799.732 514.335 798.724Q516.665 797.654 518.24 797.654Q528.003 797.654 537.829 798.661Q543.75 798.913 549.671 800.992Q554.332 802.567 554.332 805.401Q554.332 805.905 553.577 807.417L547.656 807.984Q545.829 806.409 540.16 806.409L538.837 807.165Q539.656 809.495 539.656 820.833Q539.656 837.903 539.341 851.572L538.837 882.247Q538.837 893.9 539.908 910.403Q540.664 929.236 540.664 938.747L540.664 942.086Q540.412 943.912 540.412 946.747Q540.412 952.668 541.168 953.991L540.916 954.494Q540.916 957.077 546.585 957.077Q548.915 957.077 550.49 956.825L554.332 956.825Q561.828 956.825 561.828 960.415Q561.828 962.746 560.253 964.195Q558.742 965.58 556.159 965.58Q553.828 965.58 552.002 965.076Q549.923 964.825 547.656 964.825Q546.081 964.825 542.994 966.084Q539.908 967.659 538.333 967.659ZM590.472 968.919Q588.393 968.919 588.393 961.99Q587.385 944.164 587.385 917.079Q587.385 900.073 587.637 886.656L587.889 856.233Q587.889 836.58 586.819 807.669Q584.551 805.653 584.551 802.567Q584.551 800.74 586.693 798.787Q588.897 796.835 590.724 796.835Q592.802 796.835 594.566 798.913L597.401 801.244Q598.975 802 603.385 802.819Q607.731 803.574 609.557 804.33Q613.4 806.409 619.887 812.33Q626.06 818.566 628.391 820.077L628.139 820.581Q628.391 822.156 631.981 827.321Q634.816 831.163 636.642 834.502Q640.737 846.407 640.737 865.24Q640.737 868.578 640.485 871.161L640.485 877.334L640.485 879.412L640.233 881.995Q640.233 886.908 641.807 889.742Q640.233 897.994 637.902 920.985Q637.146 927.661 635.32 935.157Q633.556 942.653 630.973 947.566Q624.234 960.163 608.487 968.919L590.472 968.919ZM607.479 961.486Q609.305 959.408 610.817 958.085Q610.817 958.085 612.644 956.825L614.722 954.998Q632.737 938.747 632.737 893.081L632.737 888.168Q632.485 886.152 632.485 883.822L631.477 857.744Q630.721 842.816 622.47 826.817Q618.565 818.818 611.951 813.779Q605.4 808.74 598.219 808.74Q595.07 808.74 595.07 856.485Q595.07 911.662 598.219 952.668L597.968 957.581L598.975 958.085L599.479 961.486L607.479 961.486ZM670.682 968.163Q666.839 968.163 666.839 964.321Q666.839 961.234 669.422 950.904L671.752 942.086Q675.343 929.74 675.595 927.661Q677.421 921.992 680.508 906.497Q683.846 890.498 685.484 883.822Q687.184 877.082 692.601 860.831Q698.837 840.486 701.924 827.195Q705.01 813.905 705.01 803.574Q701.168 803.574 692.853 804.33Q684.854 805.149 680.76 805.149Q679.185 805.149 678.177 803.89Q677.169 802.567 677.169 800.992Q677.169 798.661 686.429 797.654Q695.688 796.835 705.766 796.835Q707.593 796.835 708.852 797.15Q710.175 797.402 711.183 798.157Q712.254 799.732 712.254 800.992Q712.254 809.999 705.766 829.085Q699.593 848.737 699.593 852.327Q698.837 856.485 693.672 874.751L691.846 880.987Q675.595 934.401 675.343 959.659Q677.169 960.163 682.838 960.163Q685.925 960.163 688.255 959.659Q690.586 959.408 693.672 959.408Q701.168 959.408 701.168 962.746Q701.168 966.084 695.184 966.084Q691.09 966.084 687.751 965.832L680.004 965.328Q677.169 965.328 674.335 966.903Q671.185 968.163 670.682 968.163Z"/>
</svg>
